
<svg id='errorIcon' xmlns="http://www.w3.org/2000/svg" shape-rendering="geometricPrecision" text-rendering="geometricPrecision" image-rendering="optimizeQuality" fill-rule="evenodd" clip-rule="evenodd" viewBox="0 0 512 512">
<g><path d="M189.759 8.784c136.533-36.583 276.873 44.442 313.456 180.975 36.585 136.533-44.44 276.873-180.973 313.456C185.709 539.8 45.369 458.775 8.784 322.242-27.799 185.709 53.226 45.369 189.759 8.784zm3.011 125.678c17.913 0 32.433 21.03 32.433 46.966 0 25.939-14.52 46.965-32.433 46.965s-32.433-21.026-32.433-46.965c0-25.936 14.52-46.966 32.433-46.966zm-58.139 79.995c-6.023 27.53-24.06 41.288-24.06 55.046 0 13.773 6.007 27.531 24.06 27.531 18.057 0 24.064-13.758 24.064-27.531 0-13.758-18.056-27.516-24.064-55.046zm236.89 0c6.022 27.53 24.06 41.288 24.06 55.046 0 13.773-6.007 27.531-24.06 27.531-18.057 0-24.064-13.758-24.064-27.531 0-13.758 18.056-27.516 24.064-55.046zm-249.5 178.569l-2.169 2.227a.933.933 0 01-1.317.003l-10.478-10.42a.935.935 0 01-.108-1.225c11.568-15.742 24.86-28.986 39.328-39.755 32.213-23.98 70.293-35.712 108.354-35.54 38.06.172 76.108 12.25 108.261 35.883 14.829 10.9 28.409 24.259 40.155 40.04a.934.934 0 01-.091 1.216l-10.026 9.974a.934.934 0 01-1.32 0l-2.326-2.266c-33.101-31.464-84.02-47.672-134.751-47.925-50.721-.252-101.228 15.446-133.512 47.788zm201.236-258.564c17.913 0 32.433 21.03 32.433 46.966 0 25.939-14.52 46.965-32.433 46.965-17.914 0-32.432-21.026-32.432-46.965 0-25.936 14.518-46.966 32.432-46.966z"/></g>


</svg>